<?xml version="1.0" encoding="utf-8"?>
<!-- Generator: Adobe Illustrator 25.2.2, SVG Export Plug-In . SVG Version: 6.00 Build 0)  -->
<svg version="1.1" id="Ebene_1" xmlns="http://www.w3.org/2000/svg" xmlns:xlink="http://www.w3.org/1999/xlink" x="0px" y="0px"
	 viewBox="0 0 595.3 203.9" style="enable-background:new 0 0 595.3 203.9;" xml:space="preserve">
<style type="text/css">
	.st0{fill:#003A56;}
	.st1{fill:#87A5B2;}
</style>
<g>
	<path class="st0" d="M114.4,82.1H80.4c-1.5,0-2.2-0.5-2.2-1.4v-3c0-0.9,0.7-1.4,2.2-1.4h44.4v-8.9H80.4c-7.7,0-11.6,3.1-11.6,9.4v6
		c0,5.5,3.8,8.2,11.6,8.2h34.1c1.4,0,2.2,0.5,2.2,1.4v3.1c0,0.9-0.7,1.3-2.2,1.3H70v8.9h44.4c7.7,0,11.5-3.1,11.5-9.3v-5.2
		C126,85.2,122.1,82.1,114.4,82.1z"/>
	<path class="st0" d="M139.1,95v-3.9h44.1v-8.9h-44.1v-3.9c0-1.2,0.7-1.9,2.2-1.9h42.2v-8.9h-42.2c-7.7,0-11.6,3.1-11.6,9.4v19.6
		c0,6.3,3.8,9.4,11.6,9.4h42.4v-8.9h-42.4C139.8,96.9,139.1,96.3,139.1,95z"/>
	<path class="st0" d="M290.3,67.4h-9.7c-3.5,0-4.4,1.1-5.6,3.3L256.5,103V67.4H247c-5.7,0-9.2,2-12,7.5l-12.4,22h-0.3l-12.7-22.1
		c-2.7-5.4-6-7.3-12.1-7.3h-9.4v38.4h8.9V76.4h0.5c1.3,0,2.6,1.1,3.2,2.3l15.6,27.2h12.3l15.4-27.2c0.6-1.2,1.9-2.3,3.2-2.3h0.5
		v29.5h7.3h1.6h9.2l4.2-7.5h31.2l4.3,7.5h10.8l-20.1-35.2C294.9,68.5,292.9,67.4,290.3,67.4z M274.5,89.9l6.6-11.7
		c0.7-1.2,1.5-1.8,2.5-1.8h3.7c0.9,0,1.8,0.5,2.5,1.8l6.7,11.7H274.5z"/>
	<path class="st0" d="M300,67.4l4.9,8.9H325v29.5h9.4V76.4h22.3c0,0.1,0,0.3,0,0.4v19.6c0,6.3,3.8,9.4,11.6,9.4h42.4v-8.9h-42.4
		c-1.4,0-2.2-0.6-2.2-1.9v-3.9h44.1v-8.9h-44.1v-3.9c0-1.2,0.7-1.9,2.2-1.9h8.4h33.8v-8.9H300z"/>
	<path class="st0" d="M425.5,95.1V67.4h-9.4v29.1c0,6.2,3.8,9.3,11.6,9.3h39.9v-8.9h-39.9C426.2,96.9,425.5,96.3,425.5,95.1z"/>
	<path class="st0" d="M481.9,96.9c-1.4,0-2.2-0.6-2.2-1.8V67.4h-9.4v29.1c0,6.2,3.8,9.3,11.6,9.3h39.9v-8.9H481.9z"/>
</g>
<g>
	<path class="st1" d="M72.3,142.1h-2.2V125h2.2V142.1z"/>
	<path class="st1" d="M90.4,127.6v14.4h-2.2V125h3.5l5.5,14.4V125h2.2v17.1H96L90.4,127.6z"/>
	<path class="st1" d="M126.2,127h-5v15.1h-2.2V127h-5v-2h12.1V127z"/>
	<path class="st1" d="M149.9,127h-6.8v5.4h6.3v2h-6.3v5.7h6.8v2h-9V125h9V127z"/>
	<path class="st1" d="M167.7,140.1h6.8v2h-9V125h2.2V140.1z"/>
	<path class="st1" d="M191.4,140.1h6.8v2h-9V125h2.2V140.1z"/>
	<path class="st1" d="M215,142.1h-2.2V125h2.2V142.1z"/>
	<path class="st1" d="M240.8,125.2l-0.1,2c-0.9-0.2-2.9-0.6-4.5-0.6c-2.4,0-3.3,0.9-3.3,3.1v7.6c0,2.2,0.9,3.2,3.3,3.2
		c0.9,0,2-0.2,3.1-0.4v-5.8h-3.3v-2.1h5.5v9.2c-1.4,0.4-3.4,1-5.3,1c-4.1,0-5.6-1.8-5.6-5.3v-7.2c0-3.7,1.6-5.3,5.6-5.3
		C237.7,124.7,239.7,125,240.8,125.2z"/>
	<path class="st1" d="M266.3,127h-6.8v5.4h6.3v2h-6.3v5.7h6.8v2h-9V125h9V127z"/>
	<path class="st1" d="M284.1,127.6v14.4h-2.2V125h3.5l5.5,14.4V125h2.2v17.1h-3.4L284.1,127.6z"/>
	<path class="st1" d="M319.9,127h-5v15.1h-2.2V127h-5v-2h12.1V127z"/>
	<path class="st1" d="M362.8,142.1h-2.4l-1.1-4H353l-1.1,4h-2.3l5.2-17.1h2.7L362.8,142.1z M353.5,136.1h5.2l-2.6-9.1L353.5,136.1z"
		/>
	<path class="st1" d="M379.2,127.6v14.4H377V125h3.5l5.5,14.4V125h2.2v17.1h-3.4L379.2,127.6z"/>
	<path class="st1" d="M412.1,125.1l-0.1,2c-1.2-0.2-2.6-0.4-3.6-0.4c-2.1,0-2.8,0.8-2.8,2.4v0.7c0,1.3,0.4,1.7,2.1,2.2l2.4,0.8
		c2.3,0.8,3.2,1.9,3.2,4.5v0.5c0,3-1.5,4.6-5.7,4.6c-0.8,0-2.3-0.2-3.8-0.5l0.1-2c1.4,0.3,2.8,0.5,3.7,0.5c2.7,0,3.6-0.8,3.6-2.4
		v-0.9c0-1.2-0.4-1.8-1.8-2.2l-2.7-0.9c-2.4-0.8-3.2-1.9-3.2-4.4v-0.3c0-2.9,1.5-4.6,5.1-4.6C409.3,124.7,410.8,124.8,412.1,125.1z"
		/>
	<path class="st1" d="M443.5,142.1h-3l-3.5-14.6l-3.5,14.6h-3l-4-17.1h2.3l3.2,14.7l3.4-14.7h3l3.4,14.7l3.2-14.7h2.3L443.5,142.1z"
		/>
	<path class="st1" d="M471,127h-6.8v5.4h6.3v2h-6.3v5.7h6.8v2h-9V125h9V127z"/>
	<path class="st1" d="M497.1,129.2v0.7c0,1.9-1.1,3.7-3.2,4.3l4.4,7.9h-2.5l-4.1-7.4c-0.6,0.1-1.9,0-2.9-0.1v7.5h-2.2v-17.3
		c1.5-0.1,3.1-0.1,4.5-0.1C495.4,124.7,497.1,126.5,497.1,129.2z M488.8,126.6v6.1c1.1,0.1,1.6,0.1,2.3,0.1c2.7,0,3.8-1.2,3.8-3.1
		v-0.5c0-1.8-1.1-2.8-3.8-2.8C490.5,126.5,489.5,126.6,488.8,126.6z"/>
	<path class="st1" d="M520.6,125.1l-0.1,2c-1.2-0.2-2.6-0.4-3.6-0.4c-2.1,0-2.8,0.8-2.8,2.4v0.7c0,1.3,0.4,1.7,2.1,2.2l2.4,0.8
		c2.3,0.8,3.2,1.9,3.2,4.5v0.5c0,3-1.5,4.6-5.7,4.6c-0.8,0-2.3-0.2-3.8-0.5l0.1-2c1.4,0.3,2.8,0.5,3.7,0.5c2.7,0,3.6-0.8,3.6-2.4
		v-0.9c0-1.2-0.4-1.8-1.8-2.2l-2.7-0.9c-2.4-0.8-3.2-1.9-3.2-4.4v-0.3c0-2.9,1.5-4.6,5.1-4.6C517.8,124.7,519.3,124.8,520.6,125.1z"
		/>
</g>
</svg>
