<?xml version="1.0" encoding="UTF-8"?>
<svg width="222px" height="32px" viewBox="0 0 222 32" version="1.1" xmlns="http://www.w3.org/2000/svg" xmlns:xlink="http://www.w3.org/1999/xlink">
    <!-- Generator: Sketch 52.6 (67491) - http://www.bohemiancoding.com/sketch -->
    <title>xmog-Logo</title>
    <desc>Created with Sketch.</desc>
    <g id="Symbols" stroke="none" stroke-width="1" fill="none" fill-rule="evenodd">
        <g id="Navigation" transform="translate(-210.000000, -24.000000)">
            <g id="xmog-Logo" transform="translate(210.000000, 24.000000)">
                <g id="Group" transform="translate(77.000000, 10.000000)" fill="#000000">
                    <polygon id="Path" points="3.68173913 2.975 0.0252173913 2.975 0.0252173913 0.475 10.3391304 0.475 10.3391304 2.975 6.6826087 2.975 6.6826087 13.625 3.68173913 13.625"></polygon>
                    <path d="M19.846087,13.625 L17.2991304,8.875 L15.66,8.875 L15.66,13.625 L12.633913,13.625 L12.633913,0.475 L17.4252174,0.475 C20.2243478,0.475 22.5443478,1.45 22.5443478,4.575 C22.5443478,6.525 21.586087,7.75 20.173913,8.375 L23.1747826,13.65 L19.846087,13.625 Z M15.6852174,6.525 L17.2234783,6.525 C18.7869565,6.525 19.6443478,5.85 19.6443478,4.575 C19.6443478,3.3 18.7869565,2.85 17.2234783,2.85 L15.6852174,2.85 L15.6852174,6.525 Z" id="Shape" fill-rule="nonzero"></path>
                    <path d="M32.9843478,10.5 L28.9243478,10.5 L28.1173913,13.625 L25.066087,13.625 L29.2521739,0.475 L32.7826087,0.475 L36.9686957,13.625 L33.7913043,13.625 L32.9843478,10.5 Z M32.353913,8.175 L32.026087,6.975 C31.6478261,5.675 31.32,4.1 30.9417391,2.725 L30.866087,2.725 C30.5634783,4.125 30.1852174,5.65 29.8321739,6.975 L29.5043478,8.175 L32.353913,8.175 Z" id="Shape" fill-rule="nonzero"></path>
                    <path d="M38.9608696,0.475 L42.0373913,0.475 L45.4921739,7 L46.8034783,9.9 L46.8791304,9.9 C46.7278261,8.5 46.5008696,6.65 46.5008696,5.1 L46.5008696,0.475 L49.3504348,0.475 L49.3504348,13.625 L46.273913,13.625 L42.8191304,7.075 L41.5078261,4.2 L41.4321739,4.2 C41.5834783,5.65 41.8104348,7.4 41.8104348,8.975 L41.8104348,13.65 L38.9356522,13.65 L38.9356522,0.475 L38.9608696,0.475 Z" id="Path"></path>
                    <path d="M53.1834783,9.925 C54.1165217,10.725 55.3521739,11.3 56.4365217,11.3 C57.6721739,11.3 58.2773913,10.825 58.2773913,10.025 C58.2773913,9.2 57.5208696,8.925 56.3608696,8.45 L54.646087,7.725 C53.2591304,7.175 51.9478261,6.05 51.9478261,4.125 C51.9478261,1.95 53.9147826,0.2 56.6634783,0.2 C58.2017391,0.2 59.7904348,0.8 60.9504348,1.925 L59.4373913,3.8 C58.5547826,3.125 57.7226087,2.75 56.6634783,2.75 C55.6547826,2.75 54.973913,3.2 54.973913,3.95 C54.973913,4.75 55.8565217,5.05 57.0165217,5.5 L58.706087,6.175 C60.32,6.825 61.3286957,7.9 61.3286957,9.75 C61.3286957,11.925 59.4878261,13.825 56.3356522,13.825 C54.5956522,13.825 52.78,13.175 51.4182609,11.925 L53.1834783,9.925 Z" id="Path"></path>
                    <path d="M63.4973913,0.475 L66.6747826,0.475 L68.893913,6.4 L69.6756522,8.7 L69.7513043,8.7 L70.5330435,6.4 L72.7017391,0.475 L75.9043478,0.475 L75.9043478,13.625 L73.1052174,13.625 L73.1052174,8.8 C73.1052174,7.5 73.3573913,5.6 73.4834783,4.325 L73.3826087,4.325 L72.2982609,7.375 L70.2304348,12.475 L69.02,12.475 L66.9773913,7.375 L65.9182609,4.325 L65.8426087,4.325 C65.993913,5.6 66.2208696,7.525 66.2208696,8.8 L66.2208696,13.625 L63.4469565,13.625 L63.4469565,0.475 L63.4973913,0.475 Z" id="Path"></path>
                    <path d="M78.0730435,6.975 C78.0730435,2.675 80.5443478,0.2 84.1,0.2 C87.6808696,0.2 90.1269565,2.675 90.1269565,6.975 C90.1269565,11.275 87.6808696,13.85 84.1,13.85 C80.5443478,13.875 78.0730435,11.275 78.0730435,6.975 Z M87.0504348,6.975 C87.0504348,4.35 85.9156522,2.775 84.1,2.775 C82.3095652,2.775 81.1495652,4.35 81.1495652,6.975 C81.1495652,9.625 82.3095652,11.3 84.1,11.3 C85.9156522,11.3 87.0504348,9.625 87.0504348,6.975 Z" id="Shape" fill-rule="nonzero"></path>
                    <path d="M98.5747826,0.225 C100.44087,0.225 101.802609,1.05 102.710435,1.95 L101.071304,3.775 C100.390435,3.175 99.76,2.775 98.6252174,2.775 C96.5826087,2.775 95.12,4.375 95.12,7.025 C95.12,9.725 96.3556522,11.3 98.8773913,11.3 C99.4069565,11.3 99.9617391,11.15 100.289565,10.9 L100.289565,8.65 L98.0956522,8.65 L98.0956522,6.225 L102.962609,6.225 L102.962609,12.275 C102.004348,13.1 100.365217,13.875 98.4991304,13.875 C94.9182609,13.875 92.0686957,11.55 92.0686957,7.125 C92.0434783,2.775 94.9686957,0.225 98.5747826,0.225 Z" id="Path"></path>
                    <path d="M112.746957,13.625 L110.2,8.875 L108.56087,8.875 L108.56087,13.625 L105.534783,13.625 L105.534783,0.475 L110.326087,0.475 C113.125217,0.475 115.445217,1.45 115.445217,4.575 C115.445217,6.525 114.486957,7.75 113.074783,8.375 L116.075652,13.65 L112.746957,13.625 Z M108.56087,6.525 L110.09913,6.525 C111.662609,6.525 112.52,5.85 112.52,4.575 C112.52,3.3 111.662609,2.85 110.09913,2.85 L108.56087,2.85 L108.56087,6.525 Z" id="Shape" fill-rule="nonzero"></path>
                    <polygon id="Path" points="118.042609 0.475 121.068696 0.475 121.068696 13.625 118.042609 13.625"></polygon>
                    <polygon id="Path" points="123.741739 0.475 132.13913 0.475 132.13913 2.975 126.767826 2.975 126.767826 6.025 131.357391 6.025 131.357391 8.525 126.767826 8.525 126.767826 13.625 123.741739 13.625"></polygon>
                    <path d="M137.762609,8.95 L133.778261,0.475 L136.98087,0.475 L138.191304,3.5 C138.544348,4.5 138.872174,5.4 139.275652,6.4 L139.351304,6.4 C139.729565,5.4 140.107826,4.475 140.46087,3.5 L141.646087,0.475 L144.773043,0.475 L140.763478,8.95 L140.763478,13.625 L137.762609,13.625 L137.762609,8.95 Z" id="Path"></path>
                </g>
                <path d="M60.8930591,11.8038906 C57.5859466,10.6476257 58.0118626,19.9982903 47.3890163,25.7042066 C46.386861,26.2320667 36.6158467,30.1533131 32.6823871,21.8080963 C39.2715583,13.5885605 45.109113,2.6291794 42.8542635,0.392058026 C42.3782397,-0.0855296828 40.624468,-0.36202783 39.973067,0.995326711 C38.4197263,4.28816828 35.1877754,10.1197656 31.0789386,15.7251371 C29.7009751,9.23999873 26.6694553,2.67945179 19.4288831,2.85540515 C11.0358324,3.03135852 0.162447314,19.9228817 0.0121240173,21.1796915 C-0.188307045,22.8638165 2.14170405,24.598214 3.64493702,24.6736226 C5.17322386,24.7490312 11.762395,8.81268342 19.4038293,7.55587366 C26.2435393,6.42474487 26.3938626,13.26179 28.1225805,19.4955664 C25.0910607,23.1151785 21.7087865,26.3577477 18.2513507,28.3435071 C17.1239259,28.9970482 18.9779133,31.2090333 20.9070622,31.2593057 C23.2621272,31.3347143 26.7696708,28.5697328 30.2772144,24.6484864 C33.5091653,29.9019512 39.547151,33.2450651 47.0633158,31.5609401 C60.2416582,28.5697328 64.2001716,12.9601556 60.8930591,11.8038906 Z" id="Shape" fill="#F68E20"></path>
            </g>
        </g>
    </g>
</svg>